<?xml version="1.0" encoding="UTF-8"?>
<svg id="_レイヤー_1" data-name="レイヤー_1" xmlns="http://www.w3.org/2000/svg" width="256" height="256" version="1.1" viewBox="0 0 256 256">
  <!-- Generator: Adobe Illustrator 29.7.1, SVG Export Plug-In . SVG Version: 2.1.1 Build 8)  -->
  <defs>
    <style>
      .st0 {
        fill: #fff;
        stroke: #000;
        stroke-width: 5px;
      }

      .st0, .st1 {
        stroke-miterlimit: 10;
      }

      .st1 {
        fill: #8cc63f;
        stroke: #0071bc;
        stroke-width: 11px;
      }
    </style>
  </defs>
  <path class="st1" d="M163.03,115.47c-.65,11.26,8.28,20.6,19.4,20.6,3.32,0,6.44-.83,9.18-2.3,3.07-1.64,6.44-2.65,9.92-2.65s6.7,1.42,9,3.73c1.91,1.91,3.21,4.42,3.6,7.23l15.13,64.22-58.14-16.87c-3.92-1.14-8.24-.36-11.3,2.33-.2.18-.4.36-.59.56-2.31,2.3-3.73,5.48-3.73,9s1.01,6.85,2.65,9.92c1.47,2.74,2.3,5.86,2.3,9.18,0,11.12-9.34,20.05-20.6,19.4-9.65-.57-17.55-8.38-18.21-18.03-.27-3.9.61-7.58,2.35-10.73,1.59-2.89,2.55-6.08,2.55-9.37v-.37c0-.29,0-.58-.03-.87-.57-8.47-10.03-13.3-17.5-9.26l-37.05,20.07-4.05-68.57c0-3.51-1.43-6.7-3.73-9-2.3-2.31-5.48-3.73-9-3.73s-6.85,1.01-9.92,2.65c-2.74,1.47-5.86,2.3-9.18,2.3-11.12,0-20.05-9.34-19.4-20.6.57-9.65,8.38-17.55,18.03-18.21,3.9-.27,7.58.61,10.73,2.35,2.89,1.59,6.08,2.55,9.37,2.55h.37c.29,0,.58,0,.87-.03,8.49-.57,13.3-10.09,9.19-17.54l-24.33-44.09,72.9,3.02c7.03,0,12.73,5.7,12.73,12.73v.37c0,3.29-.96,6.48-2.55,9.37-1.74,3.15-2.62,6.83-2.35,10.73.66,9.65,8.56,17.46,18.21,18.03,11.26.65,20.6-8.28,20.6-19.4,0-3.32-.83-6.44-2.3-9.18-1.64-3.07-2.65-6.44-2.65-9.92s1.42-6.7,3.73-9c2.3-2.3,5.49-3.73,9-3.73l61.03-7.46-15.13,56.3c-.86,6.19-6.17,10.95-12.6,10.95h-.37c-3.29,0-6.48-.96-9.37-2.55-3.15-1.74-6.83-2.62-10.73-2.35-9.65.66-17.46,8.56-18.03,18.21Z"/>
  <path class="st0" d="M161.21,54.89"/>
</svg>